<?xml version="1.0" encoding="UTF-8" standalone="no"?><svg xmlns="http://www.w3.org/2000/svg" xmlns:xlink="http://www.w3.org/1999/xlink" contentScriptType="application/ecmascript" contentStyleType="text/css" height="1036px" preserveAspectRatio="none" style="width:2700px;height:1036px;background:#FFFFFF;" version="1.1" viewBox="0 0 2700 1036" width="2700px" zoomAndPan="magnify"><defs><filter height="300%" id="f1aih7tt6dxccw" width="300%" x="-1" y="-1"><feGaussianBlur result="blurOut" stdDeviation="2.0"/><feColorMatrix in="blurOut" result="blurOut2" type="matrix" values="0 0 0 0 0 0 0 0 0 0 0 0 0 0 0 0 0 0 .4 0"/><feOffset dx="4.0" dy="4.0" in="blurOut2" result="blurOut3"/><feBlend in="SourceGraphic" in2="blurOut3" mode="normal"/></filter></defs><g><line style="stroke:#A80036;stroke-width:1.0;stroke-dasharray:5.0,5.0;" x1="78" x2="78" y1="40.2969" y2="992.9531"/><line style="stroke:#A80036;stroke-width:1.0;stroke-dasharray:5.0,5.0;" x1="228" x2="228" y1="40.2969" y2="992.9531"/><line style="stroke:#A80036;stroke-width:1.0;stroke-dasharray:5.0,5.0;" x1="349" x2="349" y1="40.2969" y2="992.9531"/><line style="stroke:#A80036;stroke-width:1.0;stroke-dasharray:5.0,5.0;" x1="450" x2="450" y1="40.2969" y2="992.9531"/><line style="stroke:#A80036;stroke-width:1.0;stroke-dasharray:5.0,5.0;" x1="570" x2="570" y1="40.2969" y2="992.9531"/><line style="stroke:#A80036;stroke-width:1.0;stroke-dasharray:5.0,5.0;" x1="701" x2="701" y1="40.2969" y2="992.9531"/><line style="stroke:#A80036;stroke-width:1.0;stroke-dasharray:5.0,5.0;" x1="811" x2="811" y1="40.2969" y2="992.9531"/><line style="stroke:#A80036;stroke-width:1.0;stroke-dasharray:5.0,5.0;" x1="938" x2="938" y1="40.2969" y2="992.9531"/><line style="stroke:#A80036;stroke-width:1.0;stroke-dasharray:5.0,5.0;" x1="1082" x2="1082" y1="40.2969" y2="992.9531"/><line style="stroke:#A80036;stroke-width:1.0;stroke-dasharray:5.0,5.0;" x1="1227" x2="1227" y1="40.2969" y2="992.9531"/><line style="stroke:#A80036;stroke-width:1.0;stroke-dasharray:5.0,5.0;" x1="1372" x2="1372" y1="40.2969" y2="992.9531"/><line style="stroke:#A80036;stroke-width:1.0;stroke-dasharray:5.0,5.0;" x1="1506" x2="1506" y1="40.2969" y2="992.9531"/><line style="stroke:#A80036;stroke-width:1.0;stroke-dasharray:5.0,5.0;" x1="1652" x2="1652" y1="40.2969" y2="992.9531"/><line style="stroke:#A80036;stroke-width:1.0;stroke-dasharray:5.0,5.0;" x1="1803" x2="1803" y1="40.2969" y2="992.9531"/><line style="stroke:#A80036;stroke-width:1.0;stroke-dasharray:5.0,5.0;" x1="1961" x2="1961" y1="40.2969" y2="992.9531"/><line style="stroke:#A80036;stroke-width:1.0;stroke-dasharray:5.0,5.0;" x1="2114" x2="2114" y1="40.2969" y2="992.9531"/><line style="stroke:#A80036;stroke-width:1.0;stroke-dasharray:5.0,5.0;" x1="2243" x2="2243" y1="40.2969" y2="992.9531"/><line style="stroke:#A80036;stroke-width:1.0;stroke-dasharray:5.0,5.0;" x1="2355" x2="2355" y1="40.2969" y2="992.9531"/><line style="stroke:#A80036;stroke-width:1.0;stroke-dasharray:5.0,5.0;" x1="2485" x2="2485" y1="40.2969" y2="992.9531"/><line style="stroke:#A80036;stroke-width:1.0;stroke-dasharray:5.0,5.0;" x1="2631" x2="2631" y1="40.2969" y2="992.9531"/><rect fill="#FEFECE" filter="url(#f1aih7tt6dxccw)" height="30.2969" style="stroke:#A80036;stroke-width:1.5;" width="143" x="5" y="5"/><text fill="#000000" font-family="sans-serif" font-size="14" lengthAdjust="spacing" textLength="129" x="12" y="24.9951">classMundoMarino</text><rect fill="#FEFECE" filter="url(#f1aih7tt6dxccw)" height="30.2969" style="stroke:#A80036;stroke-width:1.5;" width="143" x="5" y="991.9531"/><text fill="#000000" font-family="sans-serif" font-size="14" lengthAdjust="spacing" textLength="129" x="12" y="1011.9482">classMundoMarino</text><rect fill="#FEFECE" filter="url(#f1aih7tt6dxccw)" height="30.2969" style="stroke:#A80036;stroke-width:1.5;" width="128" x="162" y="5"/><text fill="#000000" font-family="sans-serif" font-size="14" lengthAdjust="spacing" textLength="114" x="169" y="24.9951">classBienvenido</text><rect fill="#FEFECE" filter="url(#f1aih7tt6dxccw)" height="30.2969" style="stroke:#A80036;stroke-width:1.5;" width="128" x="162" y="991.9531"/><text fill="#000000" font-family="sans-serif" font-size="14" lengthAdjust="spacing" textLength="114" x="169" y="1011.9482">classBienvenido</text><rect fill="#FEFECE" filter="url(#f1aih7tt6dxccw)" height="30.2969" style="stroke:#A80036;stroke-width:1.5;" width="87" x="304" y="5"/><text fill="#000000" font-family="sans-serif" font-size="14" lengthAdjust="spacing" textLength="73" x="311" y="24.9951">classLogin</text><rect fill="#FEFECE" filter="url(#f1aih7tt6dxccw)" height="30.2969" style="stroke:#A80036;stroke-width:1.5;" width="87" x="304" y="991.9531"/><text fill="#000000" font-family="sans-serif" font-size="14" lengthAdjust="spacing" textLength="73" x="311" y="1011.9482">classLogin</text><rect fill="#FEFECE" filter="url(#f1aih7tt6dxccw)" height="30.2969" style="stroke:#A80036;stroke-width:1.5;" width="86" x="405" y="5"/><text fill="#000000" font-family="sans-serif" font-size="14" lengthAdjust="spacing" textLength="72" x="412" y="24.9951">classGuias</text><rect fill="#FEFECE" filter="url(#f1aih7tt6dxccw)" height="30.2969" style="stroke:#A80036;stroke-width:1.5;" width="86" x="405" y="991.9531"/><text fill="#000000" font-family="sans-serif" font-size="14" lengthAdjust="spacing" textLength="72" x="412" y="1011.9482">classGuias</text><rect fill="#FEFECE" filter="url(#f1aih7tt6dxccw)" height="30.2969" style="stroke:#A80036;stroke-width:1.5;" width="127" x="505" y="5"/><text fill="#000000" font-family="sans-serif" font-size="14" lengthAdjust="spacing" textLength="113" x="512" y="24.9951">classCuidadores</text><rect fill="#FEFECE" filter="url(#f1aih7tt6dxccw)" height="30.2969" style="stroke:#A80036;stroke-width:1.5;" width="127" x="505" y="991.9531"/><text fill="#000000" font-family="sans-serif" font-size="14" lengthAdjust="spacing" textLength="113" x="512" y="1011.9482">classCuidadores</text><rect fill="#FEFECE" filter="url(#f1aih7tt6dxccw)" height="30.2969" style="stroke:#A80036;stroke-width:1.5;" width="106" x="646" y="5"/><text fill="#000000" font-family="sans-serif" font-size="14" lengthAdjust="spacing" textLength="92" x="653" y="24.9951">classUsuarios</text><rect fill="#FEFECE" filter="url(#f1aih7tt6dxccw)" height="30.2969" style="stroke:#A80036;stroke-width:1.5;" width="106" x="646" y="991.9531"/><text fill="#000000" font-family="sans-serif" font-size="14" lengthAdjust="spacing" textLength="92" x="653" y="1011.9482">classUsuarios</text><rect fill="#FEFECE" filter="url(#f1aih7tt6dxccw)" height="30.2969" style="stroke:#A80036;stroke-width:1.5;" width="86" x="766" y="5"/><text fill="#000000" font-family="sans-serif" font-size="14" lengthAdjust="spacing" textLength="72" x="773" y="24.9951">classMenu</text><rect fill="#FEFECE" filter="url(#f1aih7tt6dxccw)" height="30.2969" style="stroke:#A80036;stroke-width:1.5;" width="86" x="766" y="991.9531"/><text fill="#000000" font-family="sans-serif" font-size="14" lengthAdjust="spacing" textLength="72" x="773" y="1011.9482">classMenu</text><rect fill="#FEFECE" filter="url(#f1aih7tt6dxccw)" height="30.2969" style="stroke:#A80036;stroke-width:1.5;" width="141" x="866" y="5"/><text fill="#000000" font-family="sans-serif" font-size="14" lengthAdjust="spacing" textLength="127" x="873" y="24.9951">classLoginadminC</text><rect fill="#FEFECE" filter="url(#f1aih7tt6dxccw)" height="30.2969" style="stroke:#A80036;stroke-width:1.5;" width="141" x="866" y="991.9531"/><text fill="#000000" font-family="sans-serif" font-size="14" lengthAdjust="spacing" textLength="127" x="873" y="1011.9482">classLoginadminC</text><rect fill="#FEFECE" filter="url(#f1aih7tt6dxccw)" height="30.2969" style="stroke:#A80036;stroke-width:1.5;" width="119" x="1021" y="5"/><text fill="#000000" font-family="sans-serif" font-size="14" lengthAdjust="spacing" textLength="105" x="1028" y="24.9951">classRegistroC</text><rect fill="#FEFECE" filter="url(#f1aih7tt6dxccw)" height="30.2969" style="stroke:#A80036;stroke-width:1.5;" width="119" x="1021" y="991.9531"/><text fill="#000000" font-family="sans-serif" font-size="14" lengthAdjust="spacing" textLength="105" x="1028" y="1011.9482">classRegistroC</text><rect fill="#FEFECE" filter="url(#f1aih7tt6dxccw)" height="30.2969" style="stroke:#A80036;stroke-width:1.5;" width="142" x="1154" y="5"/><text fill="#000000" font-family="sans-serif" font-size="14" lengthAdjust="spacing" textLength="128" x="1161" y="24.9951">classLoginadminG</text><rect fill="#FEFECE" filter="url(#f1aih7tt6dxccw)" height="30.2969" style="stroke:#A80036;stroke-width:1.5;" width="142" x="1154" y="991.9531"/><text fill="#000000" font-family="sans-serif" font-size="14" lengthAdjust="spacing" textLength="128" x="1161" y="1011.9482">classLoginadminG</text><rect fill="#FEFECE" filter="url(#f1aih7tt6dxccw)" height="30.2969" style="stroke:#A80036;stroke-width:1.5;" width="120" x="1310" y="5"/><text fill="#000000" font-family="sans-serif" font-size="14" lengthAdjust="spacing" textLength="106" x="1317" y="24.9951">classRegistroG</text><rect fill="#FEFECE" filter="url(#f1aih7tt6dxccw)" height="30.2969" style="stroke:#A80036;stroke-width:1.5;" width="120" x="1310" y="991.9531"/><text fill="#000000" font-family="sans-serif" font-size="14" lengthAdjust="spacing" textLength="106" x="1317" y="1011.9482">classRegistroG</text><rect fill="#FEFECE" filter="url(#f1aih7tt6dxccw)" height="30.2969" style="stroke:#A80036;stroke-width:1.5;" width="120" x="1444" y="5"/><text fill="#000000" font-family="sans-serif" font-size="14" lengthAdjust="spacing" textLength="106" x="1451" y="24.9951">classListaGuias</text><rect fill="#FEFECE" filter="url(#f1aih7tt6dxccw)" height="30.2969" style="stroke:#A80036;stroke-width:1.5;" width="120" x="1444" y="991.9531"/><text fill="#000000" font-family="sans-serif" font-size="14" lengthAdjust="spacing" textLength="106" x="1451" y="1011.9482">classListaGuias</text><rect fill="#FEFECE" filter="url(#f1aih7tt6dxccw)" height="30.2969" style="stroke:#A80036;stroke-width:1.5;" width="145" x="1578" y="5"/><text fill="#000000" font-family="sans-serif" font-size="14" lengthAdjust="spacing" textLength="131" x="1585" y="24.9951">classListaCuidador</text><rect fill="#FEFECE" filter="url(#f1aih7tt6dxccw)" height="30.2969" style="stroke:#A80036;stroke-width:1.5;" width="145" x="1578" y="991.9531"/><text fill="#000000" font-family="sans-serif" font-size="14" lengthAdjust="spacing" textLength="131" x="1585" y="1011.9482">classListaCuidador</text><rect fill="#FEFECE" filter="url(#f1aih7tt6dxccw)" height="30.2969" style="stroke:#A80036;stroke-width:1.5;" width="129" x="1737" y="5"/><text fill="#000000" font-family="sans-serif" font-size="14" lengthAdjust="spacing" textLength="115" x="1744" y="24.9951">classMenuZonas</text><rect fill="#FEFECE" filter="url(#f1aih7tt6dxccw)" height="30.2969" style="stroke:#A80036;stroke-width:1.5;" width="129" x="1737" y="991.9531"/><text fill="#000000" font-family="sans-serif" font-size="14" lengthAdjust="spacing" textLength="115" x="1744" y="1011.9482">classMenuZonas</text><rect fill="#FEFECE" filter="url(#f1aih7tt6dxccw)" height="30.2969" style="stroke:#A80036;stroke-width:1.5;" width="159" x="1880" y="5"/><text fill="#000000" font-family="sans-serif" font-size="14" lengthAdjust="spacing" textLength="145" x="1887" y="24.9951">classMenuItinerarios</text><rect fill="#FEFECE" filter="url(#f1aih7tt6dxccw)" height="30.2969" style="stroke:#A80036;stroke-width:1.5;" width="159" x="1880" y="991.9531"/><text fill="#000000" font-family="sans-serif" font-size="14" lengthAdjust="spacing" textLength="145" x="1887" y="1011.9482">classMenuItinerarios</text><rect fill="#FEFECE" filter="url(#f1aih7tt6dxccw)" height="30.2969" style="stroke:#A80036;stroke-width:1.5;" width="119" x="2053" y="5"/><text fill="#000000" font-family="sans-serif" font-size="14" lengthAdjust="spacing" textLength="105" x="2060" y="24.9951">classZonasInfo</text><rect fill="#FEFECE" filter="url(#f1aih7tt6dxccw)" height="30.2969" style="stroke:#A80036;stroke-width:1.5;" width="119" x="2053" y="991.9531"/><text fill="#000000" font-family="sans-serif" font-size="14" lengthAdjust="spacing" textLength="105" x="2060" y="1011.9482">classZonasInfo</text><rect fill="#FEFECE" filter="url(#f1aih7tt6dxccw)" height="30.2969" style="stroke:#A80036;stroke-width:1.5;" width="111" x="2186" y="5"/><text fill="#000000" font-family="sans-serif" font-size="14" lengthAdjust="spacing" textLength="97" x="2193" y="24.9951">classEspecies</text><rect fill="#FEFECE" filter="url(#f1aih7tt6dxccw)" height="30.2969" style="stroke:#A80036;stroke-width:1.5;" width="111" x="2186" y="991.9531"/><text fill="#000000" font-family="sans-serif" font-size="14" lengthAdjust="spacing" textLength="97" x="2193" y="1011.9482">classEspecies</text><rect fill="#FEFECE" filter="url(#f1aih7tt6dxccw)" height="30.2969" style="stroke:#A80036;stroke-width:1.5;" width="84" x="2311" y="5"/><text fill="#000000" font-family="sans-serif" font-size="14" lengthAdjust="spacing" textLength="70" x="2318" y="24.9951">classZona</text><rect fill="#FEFECE" filter="url(#f1aih7tt6dxccw)" height="30.2969" style="stroke:#A80036;stroke-width:1.5;" width="84" x="2311" y="991.9531"/><text fill="#000000" font-family="sans-serif" font-size="14" lengthAdjust="spacing" textLength="70" x="2318" y="1011.9482">classZona</text><rect fill="#FEFECE" filter="url(#f1aih7tt6dxccw)" height="30.2969" style="stroke:#A80036;stroke-width:1.5;" width="149" x="2409" y="5"/><text fill="#000000" font-family="sans-serif" font-size="14" lengthAdjust="spacing" textLength="135" x="2416" y="24.9951">classItinerariosInfo</text><rect fill="#FEFECE" filter="url(#f1aih7tt6dxccw)" height="30.2969" style="stroke:#A80036;stroke-width:1.5;" width="149" x="2409" y="991.9531"/><text fill="#000000" font-family="sans-serif" font-size="14" lengthAdjust="spacing" textLength="135" x="2416" y="1011.9482">classItinerariosInfo</text><rect fill="#FEFECE" filter="url(#f1aih7tt6dxccw)" height="30.2969" style="stroke:#A80036;stroke-width:1.5;" width="114" x="2572" y="5"/><text fill="#000000" font-family="sans-serif" font-size="14" lengthAdjust="spacing" textLength="100" x="2579" y="24.9951">classItinerario</text><rect fill="#FEFECE" filter="url(#f1aih7tt6dxccw)" height="30.2969" style="stroke:#A80036;stroke-width:1.5;" width="114" x="2572" y="991.9531"/><text fill="#000000" font-family="sans-serif" font-size="14" lengthAdjust="spacing" textLength="100" x="2579" y="1011.9482">classItinerario</text><polygon fill="#A80036" points="216,52.2969,226,56.2969,216,60.2969,220,56.2969" style="stroke:#A80036;stroke-width:1.0;"/><line style="stroke:#A80036;stroke-width:1.0;" x1="78.5" x2="222" y1="56.2969" y2="56.2969"/><polygon fill="#A80036" points="337.5,66.2969,347.5,70.2969,337.5,74.2969,341.5,70.2969" style="stroke:#A80036;stroke-width:1.0;"/><line style="stroke:#A80036;stroke-width:1.0;" x1="228" x2="343.5" y1="70.2969" y2="70.2969"/><polygon fill="#A80036" points="438,95.4297,448,99.4297,438,103.4297,442,99.4297" style="stroke:#A80036;stroke-width:1.0;"/><line style="stroke:#A80036;stroke-width:1.0;" x1="349.5" x2="444" y1="99.4297" y2="99.4297"/><text fill="#000000" font-family="sans-serif" font-size="13" lengthAdjust="spacing" textLength="52" x="356.5" y="94.3638">verificar</text><polygon fill="#A80036" points="558.5,124.5625,568.5,128.5625,558.5,132.5625,562.5,128.5625" style="stroke:#A80036;stroke-width:1.0;"/><line style="stroke:#A80036;stroke-width:1.0;" x1="349.5" x2="564.5" y1="128.5625" y2="128.5625"/><text fill="#000000" font-family="sans-serif" font-size="13" lengthAdjust="spacing" textLength="52" x="356.5" y="123.4966">verificar</text><polygon fill="#A80036" points="689,153.6953,699,157.6953,689,161.6953,693,157.6953" style="stroke:#A80036;stroke-width:1.0;"/><line style="stroke:#A80036;stroke-width:1.0;" x1="349.5" x2="695" y1="157.6953" y2="157.6953"/><text fill="#000000" font-family="sans-serif" font-size="13" lengthAdjust="spacing" textLength="92" x="356.5" y="152.6294">verificaradmin</text><polygon fill="#A80036" points="360.5,182.8281,350.5,186.8281,360.5,190.8281,356.5,186.8281" style="stroke:#A80036;stroke-width:1.0;"/><line style="stroke:#A80036;stroke-width:1.0;" x1="354.5" x2="700" y1="186.8281" y2="186.8281"/><text fill="#000000" font-family="sans-serif" font-size="13" lengthAdjust="spacing" textLength="92" x="366.5" y="181.7622">verificaradmin</text><polygon fill="#A80036" points="360.5,211.9609,350.5,215.9609,360.5,219.9609,356.5,215.9609" style="stroke:#A80036;stroke-width:1.0;"/><line style="stroke:#A80036;stroke-width:1.0;" x1="354.5" x2="449" y1="215.9609" y2="215.9609"/><text fill="#000000" font-family="sans-serif" font-size="13" lengthAdjust="spacing" textLength="52" x="366.5" y="210.895">verificar</text><polygon fill="#A80036" points="360.5,241.0938,350.5,245.0938,360.5,249.0938,356.5,245.0938" style="stroke:#A80036;stroke-width:1.0;"/><line style="stroke:#A80036;stroke-width:1.0;" x1="354.5" x2="569.5" y1="245.0938" y2="245.0938"/><text fill="#000000" font-family="sans-serif" font-size="13" lengthAdjust="spacing" textLength="52" x="366.5" y="240.0278">verificar</text><polygon fill="#A80036" points="799,255.0938,809,259.0938,799,263.0938,803,259.0938" style="stroke:#A80036;stroke-width:1.0;"/><line style="stroke:#A80036;stroke-width:1.0;" x1="349.5" x2="805" y1="259.0938" y2="259.0938"/><polygon fill="#A80036" points="926.5,269.0938,936.5,273.0938,926.5,277.0938,930.5,273.0938" style="stroke:#A80036;stroke-width:1.0;"/><line style="stroke:#A80036;stroke-width:1.0;" x1="811" x2="932.5" y1="273.0938" y2="273.0938"/><polygon fill="#A80036" points="712,298.2266,702,302.2266,712,306.2266,708,302.2266" style="stroke:#A80036;stroke-width:1.0;"/><line style="stroke:#A80036;stroke-width:1.0;" x1="706" x2="937.5" y1="302.2266" y2="302.2266"/><text fill="#000000" font-family="sans-serif" font-size="13" lengthAdjust="spacing" textLength="92" x="718" y="297.1606">verificaradmin</text><polygon fill="#A80036" points="926.5,327.3594,936.5,331.3594,926.5,335.3594,930.5,331.3594" style="stroke:#A80036;stroke-width:1.0;"/><line style="stroke:#A80036;stroke-width:1.0;" x1="701" x2="932.5" y1="331.3594" y2="331.3594"/><text fill="#000000" font-family="sans-serif" font-size="13" lengthAdjust="spacing" textLength="92" x="708" y="326.2935">verificaradmin</text><polygon fill="#A80036" points="1070.5,341.3594,1080.5,345.3594,1070.5,349.3594,1074.5,345.3594" style="stroke:#A80036;stroke-width:1.0;"/><line style="stroke:#A80036;stroke-width:1.0;" x1="938.5" x2="1076.5" y1="345.3594" y2="345.3594"/><polygon fill="#A80036" points="822,355.3594,812,359.3594,822,363.3594,818,359.3594" style="stroke:#A80036;stroke-width:1.0;"/><line style="stroke:#A80036;stroke-width:1.0;" x1="816" x2="1081.5" y1="359.3594" y2="359.3594"/><polygon fill="#A80036" points="1215,369.3594,1225,373.3594,1215,377.3594,1219,373.3594" style="stroke:#A80036;stroke-width:1.0;"/><line style="stroke:#A80036;stroke-width:1.0;" x1="811" x2="1221" y1="373.3594" y2="373.3594"/><polygon fill="#A80036" points="712,398.4922,702,402.4922,712,406.4922,708,402.4922" style="stroke:#A80036;stroke-width:1.0;"/><line style="stroke:#A80036;stroke-width:1.0;" x1="706" x2="1226" y1="402.4922" y2="402.4922"/><text fill="#000000" font-family="sans-serif" font-size="13" lengthAdjust="spacing" textLength="92" x="718" y="397.4263">verificaradmin</text><polygon fill="#A80036" points="1215,427.625,1225,431.625,1215,435.625,1219,431.625" style="stroke:#A80036;stroke-width:1.0;"/><line style="stroke:#A80036;stroke-width:1.0;" x1="701" x2="1221" y1="431.625" y2="431.625"/><text fill="#000000" font-family="sans-serif" font-size="13" lengthAdjust="spacing" textLength="92" x="708" y="426.5591">verificaradmin</text><polygon fill="#A80036" points="1360,441.625,1370,445.625,1360,449.625,1364,445.625" style="stroke:#A80036;stroke-width:1.0;"/><line style="stroke:#A80036;stroke-width:1.0;" x1="1227" x2="1366" y1="445.625" y2="445.625"/><polygon fill="#A80036" points="822,455.625,812,459.625,822,463.625,818,459.625" style="stroke:#A80036;stroke-width:1.0;"/><line style="stroke:#A80036;stroke-width:1.0;" x1="816" x2="1371" y1="459.625" y2="459.625"/><polygon fill="#A80036" points="1494,469.625,1504,473.625,1494,477.625,1498,473.625" style="stroke:#A80036;stroke-width:1.0;"/><line style="stroke:#A80036;stroke-width:1.0;" x1="811" x2="1500" y1="473.625" y2="473.625"/><polygon fill="#A80036" points="822,483.625,812,487.625,822,491.625,818,487.625" style="stroke:#A80036;stroke-width:1.0;"/><line style="stroke:#A80036;stroke-width:1.0;" x1="816" x2="1505" y1="487.625" y2="487.625"/><polygon fill="#A80036" points="1640.5,497.625,1650.5,501.625,1640.5,505.625,1644.5,501.625" style="stroke:#A80036;stroke-width:1.0;"/><line style="stroke:#A80036;stroke-width:1.0;" x1="811" x2="1646.5" y1="501.625" y2="501.625"/><polygon fill="#A80036" points="822,511.625,812,515.625,822,519.625,818,515.625" style="stroke:#A80036;stroke-width:1.0;"/><line style="stroke:#A80036;stroke-width:1.0;" x1="816" x2="1651.5" y1="515.625" y2="515.625"/><polygon fill="#A80036" points="1791.5,525.625,1801.5,529.625,1791.5,533.625,1795.5,529.625" style="stroke:#A80036;stroke-width:1.0;"/><line style="stroke:#A80036;stroke-width:1.0;" x1="811" x2="1797.5" y1="529.625" y2="529.625"/><polygon fill="#A80036" points="822,539.625,812,543.625,822,547.625,818,543.625" style="stroke:#A80036;stroke-width:1.0;"/><line style="stroke:#A80036;stroke-width:1.0;" x1="816" x2="1802.5" y1="543.625" y2="543.625"/><polygon fill="#A80036" points="1949.5,553.625,1959.5,557.625,1949.5,561.625,1953.5,557.625" style="stroke:#A80036;stroke-width:1.0;"/><line style="stroke:#A80036;stroke-width:1.0;" x1="811" x2="1955.5" y1="557.625" y2="557.625"/><polygon fill="#A80036" points="822,567.625,812,571.625,822,575.625,818,571.625" style="stroke:#A80036;stroke-width:1.0;"/><line style="stroke:#A80036;stroke-width:1.0;" x1="816" x2="1960.5" y1="571.625" y2="571.625"/><polygon fill="#A80036" points="239,581.625,229,585.625,239,589.625,235,585.625" style="stroke:#A80036;stroke-width:1.0;"/><line style="stroke:#A80036;stroke-width:1.0;" x1="233" x2="810" y1="585.625" y2="585.625"/><polygon fill="#A80036" points="2102.5,595.625,2112.5,599.625,2102.5,603.625,2106.5,599.625" style="stroke:#A80036;stroke-width:1.0;"/><line style="stroke:#A80036;stroke-width:1.0;" x1="1803.5" x2="2108.5" y1="599.625" y2="599.625"/><polygon fill="#A80036" points="2125.5,609.625,2115.5,613.625,2125.5,617.625,2121.5,613.625" style="stroke:#A80036;stroke-width:1.0;"/><line style="stroke:#A80036;stroke-width:1.0;" x1="2119.5" x2="2242.5" y1="613.625" y2="613.625"/><polygon fill="#A80036" points="2125.5,623.625,2115.5,627.625,2125.5,631.625,2121.5,627.625" style="stroke:#A80036;stroke-width:1.0;"/><line style="stroke:#A80036;stroke-width:1.0;" x1="2119.5" x2="2354" y1="627.625" y2="627.625"/><polygon fill="#A80036" points="1814.5,637.625,1804.5,641.625,1814.5,645.625,1810.5,641.625" style="stroke:#A80036;stroke-width:1.0;"/><line style="stroke:#A80036;stroke-width:1.0;" x1="1808.5" x2="2113.5" y1="641.625" y2="641.625"/><polygon fill="#A80036" points="2473.5,651.625,2483.5,655.625,2473.5,659.625,2477.5,655.625" style="stroke:#A80036;stroke-width:1.0;"/><line style="stroke:#A80036;stroke-width:1.0;" x1="1961.5" x2="2479.5" y1="655.625" y2="655.625"/><polygon fill="#A80036" points="2496.5,665.625,2486.5,669.625,2496.5,673.625,2492.5,669.625" style="stroke:#A80036;stroke-width:1.0;"/><line style="stroke:#A80036;stroke-width:1.0;" x1="2490.5" x2="2630" y1="669.625" y2="669.625"/><polygon fill="#A80036" points="1972.5,679.625,1962.5,683.625,1972.5,687.625,1968.5,683.625" style="stroke:#A80036;stroke-width:1.0;"/><line style="stroke:#A80036;stroke-width:1.0;" x1="1966.5" x2="2484.5" y1="683.625" y2="683.625"/><polygon fill="#A80036" points="581.5,708.7578,571.5,712.7578,581.5,716.7578,577.5,712.7578" style="stroke:#A80036;stroke-width:1.0;"/><line style="stroke:#A80036;stroke-width:1.0;" x1="575.5" x2="1081.5" y1="712.7578" y2="712.7578"/><text fill="#000000" font-family="sans-serif" font-size="13" lengthAdjust="spacing" textLength="107" x="587.5" y="707.6919">verificarnewuser</text><polygon fill="#A80036" points="461,737.8906,451,741.8906,461,745.8906,457,741.8906" style="stroke:#A80036;stroke-width:1.0;"/><line style="stroke:#A80036;stroke-width:1.0;" x1="455" x2="1371" y1="741.8906" y2="741.8906"/><text fill="#000000" font-family="sans-serif" font-size="13" lengthAdjust="spacing" textLength="104" x="467" y="736.8247">verficarnewuser</text><polygon fill="#A80036" points="1070.5,767.0234,1080.5,771.0234,1070.5,775.0234,1074.5,771.0234" style="stroke:#A80036;stroke-width:1.0;"/><line style="stroke:#A80036;stroke-width:1.0;" x1="570.5" x2="1076.5" y1="771.0234" y2="771.0234"/><text fill="#000000" font-family="sans-serif" font-size="13" lengthAdjust="spacing" textLength="107" x="577.5" y="765.9575">verificarnewuser</text><polygon fill="#A80036" points="581.5,796.1563,571.5,800.1563,581.5,804.1563,577.5,800.1563" style="stroke:#A80036;stroke-width:1.0;"/><line style="stroke:#A80036;stroke-width:1.0;" x1="575.5" x2="1081.5" y1="800.1563" y2="800.1563"/><text fill="#000000" font-family="sans-serif" font-size="13" lengthAdjust="spacing" textLength="105" x="587.5" y="795.0903">agregarcuidador</text><polygon fill="#A80036" points="1360,825.2891,1370,829.2891,1360,833.2891,1364,829.2891" style="stroke:#A80036;stroke-width:1.0;"/><line style="stroke:#A80036;stroke-width:1.0;" x1="450" x2="1366" y1="829.2891" y2="829.2891"/><text fill="#000000" font-family="sans-serif" font-size="13" lengthAdjust="spacing" textLength="107" x="457" y="824.2231">verificarnewuser</text><polygon fill="#A80036" points="461,854.4219,451,858.4219,461,862.4219,457,858.4219" style="stroke:#A80036;stroke-width:1.0;"/><line style="stroke:#A80036;stroke-width:1.0;" x1="455" x2="1371" y1="858.4219" y2="858.4219"/><text fill="#000000" font-family="sans-serif" font-size="13" lengthAdjust="spacing" textLength="77" x="467" y="853.356">agregarguia</text><polygon fill="#A80036" points="581.5,883.5547,571.5,887.5547,581.5,891.5547,577.5,887.5547" style="stroke:#A80036;stroke-width:1.0;"/><line style="stroke:#A80036;stroke-width:1.0;" x1="575.5" x2="1651.5" y1="887.5547" y2="887.5547"/><text fill="#000000" font-family="sans-serif" font-size="13" lengthAdjust="spacing" textLength="86" x="587.5" y="882.4888">listarcuidador</text><polygon fill="#A80036" points="1640.5,912.6875,1650.5,916.6875,1640.5,920.6875,1644.5,916.6875" style="stroke:#A80036;stroke-width:1.0;"/><line style="stroke:#A80036;stroke-width:1.0;" x1="570.5" x2="1646.5" y1="916.6875" y2="916.6875"/><text fill="#000000" font-family="sans-serif" font-size="13" lengthAdjust="spacing" textLength="108" x="577.5" y="911.6216">mostrarCuidador</text><polygon fill="#A80036" points="461,941.8203,451,945.8203,461,949.8203,457,945.8203" style="stroke:#A80036;stroke-width:1.0;"/><line style="stroke:#A80036;stroke-width:1.0;" x1="455" x2="1505" y1="945.8203" y2="945.8203"/><text fill="#000000" font-family="sans-serif" font-size="13" lengthAdjust="spacing" textLength="58" x="467" y="940.7544">listarguia</text><polygon fill="#A80036" points="1494,970.9531,1504,974.9531,1494,978.9531,1498,974.9531" style="stroke:#A80036;stroke-width:1.0;"/><line style="stroke:#A80036;stroke-width:1.0;" x1="450" x2="1500" y1="974.9531" y2="974.9531"/><text fill="#000000" font-family="sans-serif" font-size="13" lengthAdjust="spacing" textLength="80" x="457" y="969.8872">mostrarGuia</text><!--MD5=[9689ca15e793a355348e4177e020dde8]
@startuml
classMundoMarino->classBienvenido
classBienvenido->classLogin
classLogin->classGuias:verificar
classLogin->classCuidadores:verificar
classLogin->classUsuarios:verificaradmin
classUsuarios->classLogin:verificaradmin
classGuias->classLogin:verificar
classCuidadores->classLogin:verificar
classLogin->classMenu
classMenu->classLoginadminC
classLoginadminC->classUsuarios:verificaradmin
classUsuarios->classLoginadminC:verificaradmin
classLoginadminC->classRegistroC
classRegistroC->classMenu
classMenu->classLoginadminG
classLoginadminG->classUsuarios:verificaradmin
classUsuarios->classLoginadminG:verificaradmin
classLoginadminG->classRegistroG
classRegistroG->classMenu
classMenu->classListaGuias
classListaGuias->classMenu
classMenu->classListaCuidador
classListaCuidador->classMenu
classMenu->classMenuZonas
classMenuZonas->classMenu
classMenu->classMenuItinerarios
classMenuItinerarios->classMenu
classMenu->classBienvenido
classMenuZonas->classZonasInfo
classEspecies->classZonasInfo
classZona->classZonasInfo
classZonasInfo->classMenuZonas
classMenuItinerarios->classItinerariosInfo
classItinerario->classItinerariosInfo
classItinerariosInfo->classMenuItinerarios
classRegistroC->classCuidadores:verificarnewuser
classRegistroG->classGuias:verficarnewuser
classCuidadores->classRegistroC:verificarnewuser
classRegistroC->classCuidadores:agregarcuidador
classGuias->classRegistroG:verificarnewuser
classRegistroG->classGuias:agregarguia
classListaCuidador->classCuidadores:listarcuidador
classCuidadores->classListaCuidador:mostrarCuidador
classListaGuias->classGuias:listarguia
classGuias->classListaGuias:mostrarGuia
@enduml

PlantUML version 1.2021.10(Mon Aug 30 13:43:48 UTC 2021)
(GPL source distribution)
Java Runtime: Java(TM) SE Runtime Environment
JVM: Java HotSpot(TM) 64-Bit Server VM
Default Encoding: UTF-8
Language: en
Country: US
--></g></svg>